<svg width="37" height="34" viewBox="0 0 37 34" fill="none" xmlns="http://www.w3.org/2000/svg">
<path d="M32.6789 19.8197C32.6789 19.7597 32.6789 19.6397 32.6789 19.5797C32.6789 14.1797 29.4989 9.49969 24.9389 7.21969C24.9389 7.03969 24.9389 6.85969 24.9389 6.67969C24.9389 3.37969 22.2389 0.679688 18.9389 0.679688C15.6389 0.679688 12.9389 3.37969 12.9389 6.67969C12.9389 6.85969 12.9389 7.03969 12.9389 7.21969C8.37891 9.43969 5.19891 14.1797 5.19891 19.5797C5.19891 19.6397 5.19891 19.7597 5.19891 19.8197C2.73891 20.5397 0.878906 22.8197 0.878906 25.5797C0.878906 28.8797 3.57891 31.5797 6.87891 31.5797C8.19891 31.5797 9.45891 31.1597 10.4789 30.3797C12.8189 32.1797 15.7589 33.3197 18.8789 33.3197C21.9989 33.3197 24.9389 32.2397 27.2789 30.3797C28.2989 31.0997 29.4989 31.5797 30.8789 31.5797C34.1789 31.5797 36.8789 28.8797 36.8789 25.5797C36.9989 22.8797 35.1989 20.5397 32.6789 19.8197ZM12.3389 28.2797C12.7589 27.4397 12.9989 26.5397 12.9989 25.5797C12.9989 22.6397 10.8389 20.1797 8.01891 19.6997C8.01891 19.6397 8.01891 19.6397 8.01891 19.5797C8.01891 15.3797 10.4189 11.7197 13.8989 9.85969C14.9789 11.5397 16.8389 12.6797 18.9989 12.6797C21.1589 12.6797 23.0189 11.5397 24.0989 9.85969C27.5789 11.7197 29.9789 15.3797 29.9789 19.5797C29.9789 19.6397 29.9789 19.6397 29.9789 19.6997C27.1589 20.1797 24.9989 22.6397 24.9989 25.5797C24.9989 26.5397 25.2389 27.4397 25.6589 28.2797C23.7989 29.7197 21.5189 30.5597 18.9989 30.5597C16.4789 30.5597 14.1989 29.6597 12.3389 28.2797Z" fill="white"/>
</svg>
