<svg width="30" height="38" viewBox="0 0 30 38" fill="none" xmlns="http://www.w3.org/2000/svg">
<path d="M29 36.5V31.25C29 26.301 29 23.8247 27.4618 22.2882C25.9253 20.75 23.449 20.75 18.5 20.75L15 24.25L11.5 20.75C6.551 20.75 4.07475 20.75 2.53825 22.2882C1 23.8247 1 26.301 1 31.25V36.5M22 20.75V30.375" stroke="white" stroke-width="1.5" stroke-linecap="round" stroke-linejoin="round"/>
<path d="M8.875 20.75V27.75M8.875 27.75C9.80326 27.75 10.6935 28.1187 11.3499 28.7751C12.0063 29.4315 12.375 30.3217 12.375 31.25V33M8.875 27.75C7.94674 27.75 7.0565 28.1187 6.40013 28.7751C5.74375 29.4315 5.375 30.3217 5.375 31.25V33M21.125 9.375V7.625C21.125 6.82065 20.9666 6.02418 20.6588 5.28106C20.351 4.53794 19.8998 3.86273 19.331 3.29397C18.7623 2.72521 18.0871 2.27405 17.3439 1.96624C16.6008 1.65843 15.8043 1.5 15 1.5C14.1957 1.5 13.3992 1.65843 12.6561 1.96624C11.9129 2.27405 11.2377 2.72521 10.669 3.29397C10.1002 3.86273 9.64905 4.53794 9.34124 5.28106C9.03343 6.02418 8.875 6.82065 8.875 7.625V9.375C8.875 10.1793 9.03343 10.9758 9.34124 11.7189C9.64905 12.4621 10.1002 13.1373 10.669 13.706C11.2377 14.2748 11.9129 14.726 12.6561 15.0338C13.3992 15.3416 14.1957 15.5 15 15.5C15.8043 15.5 16.6008 15.3416 17.3439 15.0338C18.0871 14.726 18.7623 14.2748 19.331 13.706C19.8998 13.1373 20.351 12.4621 20.6588 11.7189C20.9666 10.9758 21.125 10.1793 21.125 9.375ZM23.3125 31.6875C23.3125 32.0356 23.1742 32.3694 22.9281 32.6156C22.6819 32.8617 22.3481 33 22 33C21.6519 33 21.3181 32.8617 21.0719 32.6156C20.8258 32.3694 20.6875 32.0356 20.6875 31.6875C20.6875 31.3394 20.8258 31.0056 21.0719 30.7594C21.3181 30.5133 21.6519 30.375 22 30.375C22.3481 30.375 22.6819 30.5133 22.9281 30.7594C23.1742 31.0056 23.3125 31.3394 23.3125 31.6875Z" stroke="white" stroke-width="1.5" stroke-linecap="round" stroke-linejoin="round"/>
</svg>
