<svg width="44" height="39" viewBox="0 0 44 39" fill="none" xmlns="http://www.w3.org/2000/svg">
<path d="M0.2596 21.5973C0.438442 23.1518 1.10872 24.5793 2.14541 25.6135C3.1821 26.6477 4.5144 27.218 5.8938 27.218C7.2732 27.218 8.6055 26.6477 9.64219 25.6135C10.6789 24.5793 11.3492 23.1518 11.528 21.5973H0.2596ZM30.9602 34.5983C30.9605 34.7298 30.9381 34.86 30.8941 34.9815C30.8501 35.1031 30.7855 35.2136 30.704 35.3068C30.6224 35.3999 30.5255 35.4739 30.4188 35.5245C30.312 35.5751 30.1976 35.6012 30.0819 35.6015H13.6646C13.1824 35.6015 12.7846 35.1514 12.7846 34.5983C12.7858 34.3341 12.8791 34.0812 13.044 33.895C13.209 33.7089 13.4322 33.6046 13.6646 33.6052H30.081C30.5668 33.6052 30.9602 34.0492 30.9602 34.5983ZM12.8806 36.1126H30.8651V39H12.8806V36.1126ZM32.472 21.5973C32.6496 23.1529 33.3193 24.5818 34.356 25.6172C35.3927 26.6527 36.7256 27.2239 38.1058 27.2242C39.4857 27.2242 40.8184 26.653 41.8548 25.6175C42.8912 24.5819 43.5602 23.1528 43.7369 21.5973H32.472ZM43.4271 19.588L38.8133 12.3649H41.2799C41.8801 12.3649 42.3632 11.8058 42.3632 11.1147C42.3632 10.4296 41.8792 9.87652 41.2799 9.87652H28.2137C27.8258 8.66225 27.1634 7.58551 26.293 6.75469C25.4227 5.92386 24.3751 5.36826 23.2558 5.1438V1.2462C23.2558 0.553089 22.7665 3.66517e-06 22.1602 3.66517e-06L22.0581 0.0130057L21.956 3.66517e-06C21.812 -0.000394115 21.6694 0.0315902 21.5364 0.0941134C21.4033 0.156637 21.2825 0.248463 21.1808 0.364301C21.0791 0.48014 20.9986 0.6177 20.944 0.769057C20.8893 0.920413 20.8615 1.08257 20.8622 1.2462V5.14179C19.743 5.3661 18.6956 5.92167 17.8255 6.75254C16.9554 7.58342 16.2933 8.66024 15.906 9.87452H2.83712C2.24136 9.87452 1.7556 10.4276 1.7556 11.1127C1.7556 11.8048 2.24136 12.3629 2.83712 12.3629H5.19112L0.5764 19.586H0V20.9202H11.7902V19.586H11.2112L6.59824 12.3649H17.307C17.307 12.0829 17.3342 11.8058 17.3712 11.5408C17.409 11.4158 17.4346 11.2887 17.4346 11.1577C17.6329 10.2075 18.0577 9.33778 18.6624 8.64389C19.267 7.95 20.0281 7.45878 20.8622 7.22411V20.9232H20.8164C20.7222 26.076 18.5654 30.5697 15.3657 33.0951H28.754C25.5534 30.5697 23.3983 26.076 23.2989 20.9232H23.2566V7.22411C24.0906 7.45884 24.8516 7.9501 25.456 8.64399C26.0605 9.33788 26.4852 10.2076 26.6834 11.1577C26.6869 11.2887 26.7106 11.4158 26.7494 11.5408C26.7846 11.8068 26.8066 12.0829 26.8066 12.3649H37.4035L32.7888 19.588H32.2133V20.9222H44V19.588H43.4271ZM5.4252 19.588H1.7424L5.4252 13.8221V19.588ZM6.36768 19.588V13.8221L10.0505 19.588H6.36768ZM37.6358 19.588H33.9513L37.6358 13.8221V19.588ZM38.5739 19.588V13.8221L42.2611 19.588H38.5739ZM6.98808 8.13825C6.98 8.46173 6.86127 8.76889 6.65709 8.99444C6.45292 9.22 6.17941 9.34619 5.89468 9.34619C5.60995 9.34619 5.33644 9.22 5.13227 8.99444C4.92809 8.76889 4.80936 8.46173 4.80128 8.13825C4.80128 7.45215 5.29232 6.89206 5.89688 6.89206C6.4988 6.89106 6.98808 7.45215 6.98808 8.13825ZM39.1996 8.07224C39.1996 8.76335 38.7103 9.31143 38.1066 9.31143C37.9631 9.31249 37.8207 9.28119 37.6879 9.21932C37.555 9.15746 37.4343 9.06627 37.3327 8.95103C37.231 8.83579 37.1505 8.69878 37.0957 8.54794C37.041 8.3971 37.0131 8.23542 37.0137 8.07224C37.0078 7.90492 37.0317 7.73797 37.0839 7.5814C37.1362 7.42484 37.2157 7.28189 37.3178 7.16113C37.4199 7.04037 37.5424 6.94429 37.6779 6.87866C37.8135 6.81303 37.9593 6.7792 38.1066 6.7792C38.254 6.7792 38.3998 6.81303 38.5353 6.87866C38.6709 6.94429 38.7934 7.04037 38.8955 7.16113C38.9975 7.28189 39.0771 7.42484 39.1294 7.5814C39.1816 7.73797 39.2055 7.90492 39.1996 8.07224Z" fill="white"/>
</svg>
