<svg width="37" height="37" viewBox="0 0 37 37" fill="none" xmlns="http://www.w3.org/2000/svg">
<path d="M12.1306 9.66402L11.1954 10.4846L8.35425 9.64436C8.35425 9.64436 7.60022 9.67628 7.3712 9.9083C7.14219 10.1403 5.85482 12.0666 5.85482 12.0666C5.85482 12.0666 5.4526 12.9718 5.7728 13.4079C6.09301 13.8439 8.0453 15.7523 8.0453 15.7523L7.98772 17.0061L4.98085 18.4181C4.84408 18.5132 4.73147 18.639 4.65205 18.7854C4.57262 18.9319 4.52857 19.0948 4.52344 19.2614C4.53803 20.1805 4.68489 21.0927 4.9595 21.97C5.10371 22.2343 5.30725 22.4615 5.55412 22.6338C5.91877 22.8452 6.3236 22.9779 6.74259 23.0235C7.25805 23.0247 8.88628 23.0879 8.88628 23.0879L9.48822 24.0832L8.24556 26.5564C8.24556 26.5564 7.92181 27.5645 8.15861 27.8701C8.39541 28.1757 10.3294 29.7953 10.3294 29.7953C10.5091 29.9769 10.7461 30.0907 11.0002 30.1174C11.2543 30.1441 11.5099 30.082 11.7234 29.9417C12.531 29.4535 14.28 28.2151 14.28 28.2151L15.3482 28.7015L15.9922 31.2726C15.9922 31.2726 16.2122 32.1381 16.7959 32.2521C17.3795 32.3662 19.9712 32.3142 19.9712 32.3142C20.193 32.2211 20.3923 32.0816 20.5556 31.905C20.7189 31.7284 20.8425 31.5188 20.9179 31.2904C21.1038 30.5669 21.5975 28.7004 21.5975 28.7004L22.7053 28.2654C23.8983 29.3069 25.9942 30.2139 26.2897 29.9853C26.8507 29.6461 28.3873 28.3908 28.3873 28.3908C28.6499 28.2104 28.8304 27.9332 28.889 27.62C28.9476 27.3068 28.8796 26.9831 28.7 26.7199C28.0972 25.6366 27.4535 24.2496 27.4535 24.2496L28.1027 23.1943L31.05 23.0202C32.8751 22.9893 32.4053 20.6805 32.4567 19.0678C32.2899 18.129 30.4769 17.7134 29.1657 17.0863L28.9872 15.9122L31.4017 13.4369C31.456 13.2138 31.4617 12.9817 31.4185 12.7562C31.3753 12.5307 31.2841 12.3172 31.1512 12.13C30.6959 11.4006 30.1237 10.2923 30.1237 10.2923C30.1237 10.2923 29.8605 9.60243 28.5336 9.85858C27.6487 10.0363 26.7733 10.2588 25.9108 10.525L24.935 9.84663L25.2026 6.84192C25.2644 6.60324 25.2387 6.35029 25.1301 6.12894C25.0215 5.90758 24.8371 5.73247 24.6105 5.63534C23.7977 5.30874 22.177 4.74387 22.177 4.74387C21.9165 4.6783 21.6424 4.69094 21.389 4.78021C21.1356 4.86949 20.9141 5.03144 20.7523 5.24584C20.2888 5.98422 19.1794 7.63049 19.1794 7.63049L17.9615 7.64189L16.4438 5.3344C16.3008 5.05305 16.0565 4.83637 15.76 4.72807C15.4636 4.61976 15.1371 4.62789 14.8464 4.75081C14.0248 5.00419 13.2165 5.29889 12.4246 5.6338C12.4246 5.6338 11.822 5.68567 11.8998 7.01629C11.9775 8.3469 12.1306 9.66402 12.1306 9.66402Z" stroke="white" stroke-width="1.25" stroke-linecap="round" stroke-linejoin="round"/>
<path d="M18.4987 35.0716C27.6517 35.0716 35.0716 27.6517 35.0716 18.4987C35.0716 9.34573 27.6517 1.92578 18.4987 1.92578C9.34573 1.92578 1.92578 9.34573 1.92578 18.4987C1.92578 27.6517 9.34573 35.0716 18.4987 35.0716Z" stroke="white" stroke-width="1.25" stroke-linecap="round" stroke-linejoin="round"/>
<path d="M18.5003 25.5632C22.401 25.5632 25.5632 22.401 25.5632 18.5003C25.5632 14.5996 22.401 11.4375 18.5003 11.4375C14.5996 11.4375 11.4375 14.5996 11.4375 18.5003C11.4375 22.401 14.5996 25.5632 18.5003 25.5632Z" stroke="white" stroke-width="1.25" stroke-linecap="round" stroke-linejoin="round"/>
<path d="M18.4988 23.0249C20.9985 23.0249 23.0249 20.9985 23.0249 18.4988C23.0249 15.9991 20.9985 13.9727 18.4988 13.9727C15.9991 13.9727 13.9727 15.9991 13.9727 18.4988C13.9727 20.9985 15.9991 23.0249 18.4988 23.0249Z" stroke="white" stroke-width="1.25" stroke-linecap="round" stroke-linejoin="round"/>
<path d="M18.4987 27.7903C23.6303 27.7903 27.7903 23.6303 27.7903 18.4987C27.7903 13.367 23.6303 9.20703 18.4987 9.20703C13.367 9.20703 9.20703 13.367 9.20703 18.4987C9.20703 23.6303 13.367 27.7903 18.4987 27.7903Z" stroke="white" stroke-width="1.25" stroke-linecap="round" stroke-linejoin="round"/>
</svg>
