<svg width="44" height="34" viewBox="0 0 44 34" fill="none" xmlns="http://www.w3.org/2000/svg">
<path d="M43.56 29.9916H0.44C0.198 29.9916 0 30.1921 0 30.437V33.5546C0 33.7996 0.198 34 0.44 34H43.56C43.802 34 44 33.7996 44 33.5546V30.437C44 30.1921 43.802 29.9916 43.56 29.9916ZM2.9535 23.0216L5.137 25.2206C5.3075 25.3932 5.588 25.3932 5.7585 25.2206L18.667 12.199L24.035 17.6158C24.3657 17.9475 24.8124 18.1336 25.278 18.1336C25.7436 18.1336 26.1903 17.9475 26.521 17.6158L41.052 2.96307C41.2225 2.79048 41.2225 2.50656 41.052 2.33398L38.8685 0.129381C38.7858 0.046496 38.6741 0 38.5578 0C38.4414 0 38.3297 0.046496 38.247 0.129381L25.2835 13.2122L19.91 7.79536C19.5793 7.46369 19.1326 7.27761 18.667 7.27761C18.2014 7.27761 17.7547 7.46369 17.424 7.79536L2.9535 22.3925C2.91236 22.4336 2.87969 22.4826 2.8574 22.5366C2.8351 22.5905 2.82362 22.6485 2.82362 22.707C2.82362 22.7655 2.8351 22.8235 2.8574 22.8775C2.87969 22.9315 2.91236 22.9804 2.9535 23.0216Z" fill="white"/>
</svg>
